<svg width="178" height="27" viewBox="0 0 178 27" fill="none" xmlns="http://www.w3.org/2000/svg">
<path d="M8.196 21V12.992L9.232 15.736L0.608 1.4H5.424L12.032 12.404H9.26L15.896 1.4H20.348L11.724 15.736L12.732 12.992V21H8.196ZM27.3095 21.224C26.0588 21.224 24.9388 20.9813 23.9495 20.496C22.9788 20.0107 22.2228 19.2733 21.6815 18.284C21.1402 17.276 20.8695 15.9973 20.8695 14.448V5.936H25.2375V13.804C25.2375 15.0547 25.4988 15.9787 26.0215 16.576C26.5628 17.1547 27.3188 17.444 28.2895 17.444C28.9615 17.444 29.5588 17.304 30.0815 17.024C30.6042 16.7253 31.0148 16.2773 31.3135 15.68C31.6122 15.064 31.7615 14.2987 31.7615 13.384V5.936H36.1295V21H31.9855V16.856L32.7415 18.06C32.2375 19.1053 31.4908 19.8987 30.5015 20.44C29.5308 20.9627 28.4668 21.224 27.3095 21.224ZM45.2442 21.224C43.9562 21.224 42.7148 21.0747 41.5202 20.776C40.3442 20.4587 39.4108 20.0667 38.7202 19.6L40.1762 16.464C40.8668 16.8933 41.6788 17.248 42.6122 17.528C43.5642 17.7893 44.4975 17.92 45.4122 17.92C46.4202 17.92 47.1295 17.7987 47.5402 17.556C47.9695 17.3133 48.1842 16.9773 48.1842 16.548C48.1842 16.1933 48.0162 15.932 47.6802 15.764C47.3628 15.5773 46.9335 15.4373 46.3922 15.344C45.8508 15.2507 45.2535 15.1573 44.6002 15.064C43.9655 14.9707 43.3215 14.8493 42.6682 14.7C42.0148 14.532 41.4175 14.2893 40.8762 13.972C40.3348 13.6547 39.8962 13.2253 39.5602 12.684C39.2428 12.1427 39.0842 11.4427 39.0842 10.584C39.0842 9.632 39.3548 8.792 39.8962 8.064C40.4562 7.336 41.2588 6.76667 42.3042 6.356C43.3495 5.92667 44.6002 5.712 46.0562 5.712C47.0828 5.712 48.1282 5.824 49.1922 6.048C50.2562 6.272 51.1428 6.59867 51.8522 7.028L50.3962 10.136C49.6682 9.70667 48.9308 9.41733 48.1842 9.268C47.4562 9.1 46.7468 9.016 46.0562 9.016C45.0855 9.016 44.3762 9.14667 43.9282 9.408C43.4802 9.66933 43.2562 10.0053 43.2562 10.416C43.2562 10.7893 43.4148 11.0693 43.7322 11.256C44.0682 11.4427 44.5068 11.592 45.0482 11.704C45.5895 11.816 46.1775 11.9187 46.8122 12.012C47.4655 12.0867 48.1188 12.208 48.7722 12.376C49.4255 12.544 50.0135 12.7867 50.5362 13.104C51.0775 13.4027 51.5162 13.8227 51.8522 14.364C52.1882 14.8867 52.3562 15.5773 52.3562 16.436C52.3562 17.3693 52.0762 18.2 51.5162 18.928C50.9562 19.6373 50.1442 20.1973 49.0802 20.608C48.0348 21.0187 46.7562 21.224 45.2442 21.224ZM55.0512 21V5.936H59.2232V10.192L58.6352 8.96C59.0832 7.896 59.8018 7.09333 60.7912 6.552C61.7805 5.992 62.9845 5.712 64.4032 5.712V9.744C64.2165 9.72533 64.0485 9.716 63.8992 9.716C63.7498 9.69733 63.5912 9.688 63.4232 9.688C62.2285 9.688 61.2578 10.0333 60.5112 10.724C59.7832 11.396 59.4192 12.4507 59.4192 13.888V21H55.0512ZM74.059 21.224C72.4537 21.224 71.0257 20.888 69.775 20.216C68.543 19.544 67.563 18.6293 66.835 17.472C66.1257 16.296 65.771 14.9613 65.771 13.468C65.771 11.956 66.1257 10.6213 66.835 9.464C67.563 8.288 68.543 7.37333 69.775 6.72C71.0257 6.048 72.4537 5.712 74.059 5.712C75.6457 5.712 77.0643 6.048 78.315 6.72C79.5657 7.37333 80.5457 8.27867 81.255 9.436C81.9643 10.5933 82.319 11.9373 82.319 13.468C82.319 14.9613 81.9643 16.296 81.255 17.472C80.5457 18.6293 79.5657 19.544 78.315 20.216C77.0643 20.888 75.6457 21.224 74.059 21.224ZM74.059 17.64C74.787 17.64 75.4403 17.472 76.019 17.136C76.5977 16.8 77.055 16.324 77.391 15.708C77.727 15.0733 77.895 14.3267 77.895 13.468C77.895 12.5907 77.727 11.844 77.391 11.228C77.055 10.612 76.5977 10.136 76.019 9.8C75.4403 9.464 74.787 9.296 74.059 9.296C73.331 9.296 72.6777 9.464 72.099 9.8C71.5203 10.136 71.0537 10.612 70.699 11.228C70.363 11.844 70.195 12.5907 70.195 13.468C70.195 14.3267 70.363 15.0733 70.699 15.708C71.0537 16.324 71.5203 16.8 72.099 17.136C72.6777 17.472 73.331 17.64 74.059 17.64ZM94.3947 5.712C95.5893 5.712 96.6533 5.95467 97.5867 6.44C98.5387 6.90667 99.2853 7.63467 99.8267 8.624C100.368 9.59467 100.639 10.8453 100.639 12.376V21H96.2707V13.048C96.2707 11.8347 96 10.9387 95.4587 10.36C94.936 9.78133 94.1893 9.492 93.2187 9.492C92.528 9.492 91.9027 9.64133 91.3427 9.94C90.8013 10.22 90.372 10.6587 90.0547 11.256C89.756 11.8533 89.6067 12.6187 89.6067 13.552V21H85.2387V5.936H89.4107V10.108L88.6267 8.848C89.168 7.84 89.9427 7.06533 90.9507 6.524C91.9587 5.98267 93.1067 5.712 94.3947 5.712ZM109.966 21L118.926 1.4H120.97L129.93 21H127.746L119.514 2.604H120.354L112.122 21H109.966ZM113.494 15.764L114.11 14.084H125.506L126.122 15.764H113.494ZM132.752 21V6.3H134.656V10.304L134.46 9.604C134.871 8.484 135.562 7.63467 136.532 7.056C137.503 6.45867 138.707 6.16 140.144 6.16V8.092C140.07 8.092 139.995 8.092 139.92 8.092C139.846 8.07333 139.771 8.064 139.696 8.064C138.147 8.064 136.934 8.54 136.056 9.492C135.179 10.4253 134.74 11.76 134.74 13.496V21H132.752ZM143.772 21V0.223999H145.76V21H143.772ZM151.404 26.572C150.713 26.572 150.05 26.46 149.416 26.236C148.8 26.012 148.268 25.676 147.82 25.228L148.744 23.744C149.117 24.0987 149.518 24.3693 149.948 24.556C150.396 24.7613 150.89 24.864 151.432 24.864C152.085 24.864 152.645 24.6773 153.112 24.304C153.597 23.9493 154.054 23.3147 154.484 22.4L155.436 20.244L155.66 19.936L161.708 6.3H163.668L156.304 22.764C155.893 23.716 155.436 24.472 154.932 25.032C154.446 25.592 153.914 25.984 153.336 26.208C152.757 26.4507 152.113 26.572 151.404 26.572ZM155.324 21.42L148.548 6.3H150.62L156.612 19.796L155.324 21.42Z" fill="white"/>
<path d="M174.691 21.224C173.945 21.224 173.301 20.972 172.759 20.468C172.237 19.9453 171.975 19.2827 171.975 18.48C171.975 17.6773 172.237 17.0333 172.759 16.548C173.301 16.044 173.945 15.792 174.691 15.792C175.457 15.792 176.101 16.044 176.623 16.548C177.146 17.0333 177.407 17.6773 177.407 18.48C177.407 19.2827 177.146 19.9453 176.623 20.468C176.101 20.972 175.457 21.224 174.691 21.224Z" fill="#F13024"/>
</svg>